<svg id="Warstwa_1" data-name="Warstwa 1" xmlns="http://www.w3.org/2000/svg" viewBox="0 0 659.8 244.17"><defs><style>.cls-1{fill:#042940;}.cls-2{fill:#dbf227;}</style></defs><path class="cls-1" d="M599.14,310.28a12.46,12.46,0,0,1-8.64-2.88,15.79,15.79,0,0,1-4.58-7L514.7,83.06c-.23-1.13-2.8-9.62-2.8-9.62l62,23,47.62,150.42L668.9,96.44l61-23-73.11,227a13.54,13.54,0,0,1-4.23,7c-2.16,1.92-5.15,2.88-9,2.88Z" transform="translate(-70.1 -69.5)"/><path class="cls-2" d="M262.39,239.4q0,23.07-12.55,39.68t-34.25,25.6q-21.71,9-49.51,9-25.11,0-43.07-6.11T93.5,292a65.5,65.5,0,0,1-17.29-20.85q-5.77-11.36-6.11-21.88a7,7,0,0,1,7.13-7.12h37.3a11.08,11.08,0,0,1,6.1,1.53A14.07,14.07,0,0,1,125,248.9a26.48,26.48,0,0,0,8.82,12.54,35.83,35.83,0,0,0,14.41,6.62,81.38,81.38,0,0,0,17.81,1.86q19,0,29.84-8.82t10.85-24.75q0-16.28-10.17-23.4t-28.83-7.12H131.49a8.11,8.11,0,0,1-8.14-8.14V181.07a13.64,13.64,0,0,1,4.74-10.85l58.33-53.58H125.9V122a6.86,6.86,0,0,1-2.82,5.54l-41.18,30,.41-72.26V81.37a8.13,8.13,0,0,1,8.48-8.48H241.36a8.12,8.12,0,0,1,8.48,8.48v24.41a13.17,13.17,0,0,1-1.36,6.28,10.43,10.43,0,0,1-3.39,3.9l-55.27,54.6,3.39.34a102.06,102.06,0,0,1,35.61,9.83,60,60,0,0,1,24.58,22.21Q262.39,217.37,262.39,239.4Z" transform="translate(-70.1 -69.5)"/><path class="cls-1" d="M349.54,163.1q-1,27.81,0,57,1,26.79,13.23,38.32T396,269.92q17.64,0,29.68-7.63T442.46,235a68.18,68.18,0,0,0,1.44-8.55l55-23v23s-.14,4.82-.14,6.86a75.28,75.28,0,0,1-29.17,58,96.64,96.64,0,0,1-32.21,16.61A139.54,139.54,0,0,1,396,313.67q-31.87,0-54.09-10.68a78.83,78.83,0,0,1-34.42-31.2q-12.21-20.52-13.56-50-.35-13.9-.34-29.85t.34-30.52q1.35-29.16,13.73-49.68a80.73,80.73,0,0,1,34.76-31.37Q364.8,69.51,396,69.5a139.87,139.87,0,0,1,41.38,5.76,96.84,96.84,0,0,1,32.21,16.62,75.24,75.24,0,0,1,29.17,58c0,2,.14,6.57.14,6.57v23l-55-23a61,61,0,0,0-1.44-8.27q-5.08-20-16.95-27.46T396,113.24q-21,0-33.23,11.53T349.54,163.1Z" transform="translate(-70.1 -69.5)"/></svg>