<svg id="Warstwa_1" data-name="Warstwa 1" xmlns="http://www.w3.org/2000/svg" viewBox="0 0 793.66 199.21"><defs><style>.cls-1,.cls-3,.cls-4{fill:#042940;}.cls-2{fill:#dbf227;}.cls-3,.cls-4{font-size:58.68px;font-family:Rubik-SemiBold, Rubik;font-weight:600;}.cls-4{letter-spacing:-0.02em;}.cls-5{letter-spacing:-0.03em;}.cls-6{letter-spacing:-0.07em;}.cls-7{letter-spacing:-0.01em;}.cls-8{letter-spacing:0em;}</style></defs><path class="cls-1" d="M441.21,234.38a9.12,9.12,0,0,1-6.34-2.12,11.55,11.55,0,0,1-3.36-5.09L379.28,67.72c-.17-.83-2.06-7.06-2.06-7.06L422.7,77.53l34.93,110.33L492.38,77.53l44.74-16.87L483.5,227.17a9.88,9.88,0,0,1-3.11,5.09,9.49,9.49,0,0,1-6.59,2.12Z" transform="translate(-53.17 -50.39)"/><path class="cls-2" d="M194.21,182.39q0,16.92-9.2,29.11t-25.13,18.77q-15.91,6.6-36.31,6.6-18.42,0-31.59-4.48T70.33,220.94a48,48,0,0,1-12.68-15.29,38.23,38.23,0,0,1-4.48-16.05,5.12,5.12,0,0,1,5.23-5.22H85.76a8.1,8.1,0,0,1,4.47,1.12,10.31,10.31,0,0,1,3.24,3.86,19.45,19.45,0,0,0,6.47,9.2,26.28,26.28,0,0,0,10.57,4.85,59.6,59.6,0,0,0,13.06,1.37q13.94,0,21.89-6.47t8-18.16q0-11.93-7.46-17.16t-21.15-5.22H98.2a6,6,0,0,1-6-6V139.61a10.14,10.14,0,0,1,1.11-5,10.36,10.36,0,0,1,2.36-3l42.79-39.3H94.1v3.89A5,5,0,0,1,92,100.31l-30.2,22,.3-53V66.48a6,6,0,0,1,6.22-6.22H178.79A6,6,0,0,1,185,66.48v17.9A9.64,9.64,0,0,1,184,89a7.63,7.63,0,0,1-2.49,2.86L141,131.9l2.49.25a74.75,74.75,0,0,1,26.12,7.21,44.06,44.06,0,0,1,18,16.29Q194.21,166.22,194.21,182.39Z" transform="translate(-53.17 -50.39)"/><path class="cls-1" d="M258.13,126.43q-.74,20.4,0,41.78.75,19.65,9.71,28.11t24.37,8.46q12.94,0,21.77-5.6t12.31-20a49.91,49.91,0,0,0,1.06-6.27L367.69,156v16.87s-.11,3.53-.11,5a55.23,55.23,0,0,1-21.39,42.53,70.8,70.8,0,0,1-23.63,12.18,102.12,102.12,0,0,1-30.35,4.24q-23.37,0-39.67-7.84a57.86,57.86,0,0,1-25.25-22.88q-9-15.06-9.94-36.69-.25-10.2-.25-21.89t.25-22.39q1-21.39,10.07-36.44a59.24,59.24,0,0,1,25.49-23q16.43-8,39.3-8A102.46,102.46,0,0,1,322.56,62a70.82,70.82,0,0,1,23.63,12.19,57.09,57.09,0,0,1,15.42,18.65,56.46,56.46,0,0,1,6,23.88c0,1.5.11,4.82.11,4.82v16.87l-40.34-16.87a44.38,44.38,0,0,0-1.06-6.06q-3.74-14.67-12.43-20.15t-21.65-5.47q-15.42,0-24.37,8.45T258.13,126.43Z" transform="translate(-53.17 -50.39)"/><text class="cls-3" transform="translate(522.16 49.88)">FREE</text><text class="cls-4" transform="translate(522.16 117.07)">C<tspan class="cls-5" x="39.61" y="0">V</tspan></text><text class="cls-3" transform="translate(522.16 183.72)">CRE<tspan class="cls-6" x="117.65" y="0">A</tspan><tspan class="cls-7" x="154.73" y="0">T</tspan><tspan class="cls-8" x="190.23" y="0">OR</tspan></text><path class="cls-1" d="M556.56,235.6a1.1,1.1,0,0,1-1.1-1.1V60.66a1.1,1.1,0,0,1,2.2,0V234.5A1.1,1.1,0,0,1,556.56,235.6Z" transform="translate(-53.17 -50.39)"/></svg>